M48
; DRILL file KiCad 10.0.1 date 2026-05-23T17:22:15
; FORMAT={-:-/ absolute / metric / decimal}
; #@! TF.CreationDate,2026-05-23T17:22:15-05:00
; #@! TF.GenerationSoftware,Kicad,Pcbnew,10.0.1
; #@! TF.FileFunction,Plated,1,2,PTH
FMAT,2
METRIC
; #@! TA.AperFunction,Plated,PTH,ViaDrill
T1C0.300
; #@! TA.AperFunction,Plated,PTH,ComponentDrill
T2C0.700
; #@! TA.AperFunction,Plated,PTH,ComponentDrill
T3C0.800
; #@! TA.AperFunction,Plated,PTH,ComponentDrill
T4C0.900
; #@! TA.AperFunction,Plated,PTH,ComponentDrill
T5C1.000
; #@! TA.AperFunction,Plated,PTH,ComponentDrill
T6C1.020
; #@! TA.AperFunction,Plated,PTH,ComponentDrill
T7C1.100
; #@! TA.AperFunction,Plated,PTH,ComponentDrill
T8C1.500
%
G90
G05
T1
X165.75Y-111.5
X186.0Y-111.25
X190.75Y-105.5
X196.75Y-114.0
X197.25Y-91.75
X199.5Y-88.25
X199.5Y-93.0
X201.25Y-79.25
X202.0Y-112.0
X205.0Y-127.0
X206.5Y-112.0
X209.0Y-130.75
X220.0Y-118.5
X221.25Y-128.0
X221.5Y-115.25
X221.75Y-125.5
X222.25Y-112.75
X223.25Y-114.25
X223.5Y-108.75
X224.5Y-112.25
X235.0Y-97.75
X237.75Y-72.5
X249.5Y-125.25
X249.5Y-130.0
X253.0Y-125.25
X253.5Y-131.25
X254.75Y-116.25
X257.5Y-139.75
X257.5Y-144.25
X261.0Y-109.5
X261.0Y-112.25
X261.75Y-144.5
X262.5Y-151.75
X262.5Y-159.25
X263.5Y-129.25
X270.25Y-110.5
X273.25Y-111.25
X273.75Y-112.75
X277.5Y-24.5
X278.0Y-71.75
X279.75Y-69.75
X280.5Y-111.25
X282.0Y-127.75
X286.0Y-96.0
X286.25Y-107.75
X287.0Y-105.0
X290.5Y-129.0
X296.25Y-143.25
X297.25Y-115.25
X299.25Y-109.75
X306.75Y-55.5
X306.75Y-70.0
X307.25Y-57.75
X307.25Y-59.25
X308.5Y-61.5
X308.5Y-71.75
X311.75Y-112.25
X312.25Y-89.5
X314.5Y-109.5
X314.75Y-21.25
X315.0Y-89.5
X316.5Y-130.0
X323.11Y-59.25
X324.0Y-107.75
X326.0Y-60.25
X326.75Y-76.5
X328.0Y-85.5
X328.0Y-89.75
X329.0Y-153.25
X329.75Y-76.5
X329.75Y-86.5
X329.75Y-92.0
X330.0Y-89.5
X332.5Y-109.75
X336.75Y-133.75
X338.0Y-59.5
X348.5Y-59.5
X349.625Y-111.125
X351.0Y-58.5
X352.0Y-87.0
X352.0Y-110.0
X353.5Y-71.75
X353.5Y-107.75
X356.5Y-71.25
X367.25Y-70.25
X371.156Y-109.0
X371.25Y-91.25
X371.25Y-94.0
X373.5Y-147.25
X375.5Y-130.5
X375.75Y-146.0
X376.0Y-91.0
X380.5Y-75.75
X381.25Y-113.5
X385.75Y-115.0
X386.75Y-76.5
X389.0Y-69.25
X390.25Y-72.0
X390.75Y-94.0
X393.0Y-107.75
X393.0Y-109.0
X393.5Y-93.25
X395.5Y-74.25
X403.0Y-109.75
X406.75Y-107.75
X407.0Y-109.0
X408.5Y-71.0
X408.5Y-132.0
X416.5Y-121.25
X419.25Y-86.25
X419.5Y-92.75
X420.0Y-128.0
X421.5Y-109.25
X431.75Y-129.25
X433.5Y-73.0
X435.25Y-133.25
X436.75Y-75.25
X437.75Y-76.75
X438.0Y-73.0
X438.25Y-88.75
X438.5Y-84.0
X439.75Y-91.0
X440.5Y-113.0
X442.25Y-112.5
X443.75Y-90.0
X460.5Y-113.25
X460.5Y-117.0
X463.25Y-90.75
X466.0Y-114.5
X466.75Y-76.75
X466.75Y-81.75
X466.75Y-88.25
X466.75Y-89.75
X467.25Y-90.75
X469.75Y-157.0
X470.25Y-114.5
X473.25Y-118.5
X476.25Y-118.5
X476.5Y-114.5
X477.5Y-97.25
X477.5Y-104.5
X477.75Y-88.25
X479.25Y-89.75
X481.25Y-111.5
X495.25Y-90.0
X497.75Y-106.5
X501.25Y-96.0
X501.5Y-97.25
X502.0Y-92.75
X503.0Y-88.25
X503.0Y-114.25
X504.5Y-95.5
X504.5Y-126.25
X504.75Y-89.5
X504.75Y-107.25
X505.0Y-111.5
X526.25Y-108.75
X531.5Y-109.0
X537.25Y-106.75
X539.0Y-80.5
X542.75Y-91.75
T2
X175.44Y-119.54
X175.44Y-127.16
X206.73Y-37.8
X214.35Y-37.8
T3
X154.34Y-116.73
X154.34Y-124.35
X169.02Y-78.73
X169.02Y-86.35
X174.02Y-97.23
X174.02Y-104.85
X178.05Y-135.98
X178.05Y-143.6
X180.2Y-56.38
X180.2Y-64.0
X180.34Y-41.88
X180.34Y-49.5
X180.34Y-119.48
X180.34Y-127.1
X182.74Y-56.38
X182.74Y-64.0
X182.88Y-41.88
X182.88Y-49.5
X185.28Y-56.38
X185.28Y-64.0
X185.42Y-41.88
X185.42Y-49.5
X187.82Y-56.38
X187.82Y-64.0
X187.96Y-41.88
X187.96Y-49.5
X188.02Y-78.98
X188.02Y-86.6
X190.36Y-56.38
X190.36Y-64.0
X190.5Y-41.88
X190.5Y-49.5
X192.9Y-56.38
X192.9Y-64.0
X193.04Y-41.88
X193.04Y-49.5
X195.44Y-56.38
X195.44Y-64.0
X195.58Y-41.88
X195.58Y-49.5
X202.27Y-97.23
X202.27Y-104.85
X207.27Y-79.23
X207.27Y-86.85
X207.34Y-116.85
X207.34Y-124.47
X208.05Y-136.23
X208.05Y-143.85
X221.77Y-97.23
X221.77Y-104.85
X226.27Y-79.23
X226.27Y-86.85
X226.59Y-116.85
X226.59Y-124.47
X227.22Y-135.98
X227.22Y-143.6
X240.27Y-97.73
X240.27Y-105.35
X245.27Y-78.98
X245.27Y-86.6
X245.84Y-116.98
X245.84Y-124.6
X246.72Y-135.23
X246.72Y-142.85
X253.25Y-43.25
X253.25Y-45.75
X259.77Y-97.85
X259.77Y-105.47
X264.52Y-78.73
X264.52Y-86.35
X264.59Y-116.85
X264.59Y-124.47
X265.22Y-136.23
X265.22Y-143.85
X266.25Y-43.5
X266.25Y-46.0
X278.52Y-97.85
X278.52Y-105.47
X283.52Y-78.98
X283.52Y-86.6
X283.59Y-116.48
X283.59Y-124.1
X284.72Y-135.23
X284.72Y-142.85
X286.59Y-153.98
X286.59Y-161.6
X297.52Y-97.98
X297.52Y-105.6
X302.52Y-78.73
X302.52Y-86.35
X303.09Y-116.98
X303.09Y-124.6
X303.47Y-135.98
X303.47Y-143.6
X316.77Y-97.85
X316.77Y-105.47
X321.52Y-78.48
X321.52Y-86.1
X321.84Y-116.23
X321.84Y-123.85
X322.72Y-136.23
X322.72Y-143.85
X335.77Y-97.73
X335.77Y-105.35
X340.52Y-78.73
X340.52Y-86.35
X340.84Y-116.155
X340.84Y-123.775
X341.97Y-136.48
X341.97Y-144.1
X354.77Y-97.23
X354.77Y-104.85
X359.52Y-78.73
X359.52Y-86.35
X359.84Y-116.48
X359.84Y-124.1
X361.22Y-136.48
X361.22Y-144.1
X374.27Y-97.48
X374.27Y-105.1
X378.27Y-58.73
X378.27Y-66.35
X378.52Y-78.98
X378.52Y-86.6
X378.84Y-116.98
X378.84Y-124.6
X379.72Y-135.48
X379.72Y-143.1
X393.52Y-97.48
X393.52Y-105.1
X397.77Y-58.98
X397.77Y-66.6
X397.77Y-78.98
X397.77Y-86.6
X398.34Y-117.23
X398.34Y-124.85
X406.72Y-135.73
X406.72Y-143.35
X412.02Y-97.98
X412.02Y-105.6
X416.52Y-59.48
X416.52Y-67.1
X416.77Y-78.98
X416.77Y-86.6
X421.92Y-116.23
X421.92Y-123.85
X436.02Y-59.48
X436.02Y-67.1
X436.02Y-79.48
X436.02Y-87.1
X436.72Y-135.73
X436.72Y-143.35
X444.97Y-96.98
X444.97Y-104.6
X445.0Y-117.23
X445.0Y-124.85
X485.192Y-78.48
X485.192Y-86.1
X485.442Y-97.23
X485.442Y-104.85
X485.692Y-116.73
X485.692Y-124.35
X494.442Y-135.73
X494.442Y-143.35
X504.442Y-78.48
X504.442Y-86.1
X504.442Y-97.23
X504.442Y-104.85
X504.692Y-116.73
X504.692Y-124.35
X523.192Y-97.23
X523.192Y-104.85
X523.192Y-134.98
X523.192Y-142.6
X523.442Y-117.48
X523.442Y-125.1
X523.692Y-78.48
X523.692Y-86.1
X542.692Y-78.23
X542.692Y-85.85
X542.692Y-97.23
X542.692Y-104.85
X542.692Y-126.73
X542.692Y-134.35
T4
X175.17Y-113.23
X177.71Y-113.23
T5
X253.05Y-31.7
X255.59Y-31.7
X258.13Y-31.7
X260.67Y-31.7
X263.21Y-31.7
X265.75Y-31.7
X288.0Y-38.7
X288.0Y-46.3
T6
X310.41Y-31.82
X310.41Y-49.6
X312.95Y-31.82
X312.95Y-49.6
X315.49Y-31.82
X315.49Y-49.6
X318.03Y-31.82
X318.03Y-49.6
X320.57Y-31.82
X320.57Y-49.6
X323.11Y-31.82
X323.11Y-49.6
X325.65Y-31.82
X325.65Y-49.6
X328.19Y-31.82
X328.19Y-49.6
X330.73Y-31.82
X330.73Y-49.6
X333.27Y-31.82
X333.27Y-49.6
X335.81Y-31.82
X335.81Y-49.6
X338.35Y-31.82
X338.35Y-49.6
X340.89Y-31.82
X340.89Y-49.6
X343.43Y-31.82
X343.43Y-49.6
X345.97Y-31.82
X345.97Y-49.6
X348.51Y-31.82
X348.51Y-49.6
X351.05Y-31.82
X351.05Y-49.6
X353.59Y-31.82
X353.59Y-49.6
X356.13Y-31.82
X356.13Y-49.6
X358.44Y-38.17
X358.44Y-40.71
X358.44Y-43.25
X358.67Y-31.82
X358.67Y-49.6
T7
X285.25Y-25.75
X295.41Y-25.75
T8
X159.33Y-117.36
X165.68Y-114.82
X174.16Y-79.26
X180.51Y-76.72
X181.13Y-98.31
X184.11Y-136.41
X185.73Y-117.36
X187.48Y-95.77
X190.46Y-133.87
X192.08Y-114.82
X193.21Y-79.26
X199.56Y-76.72
X207.243Y-98.31
X212.13Y-117.417
X212.26Y-79.26
X213.08Y-136.472
X213.593Y-95.77
X218.48Y-114.877
X218.61Y-76.72
X219.43Y-133.933
X226.277Y-98.31
X231.302Y-117.36
X231.31Y-79.26
X232.18Y-136.472
X232.627Y-95.77
X237.652Y-114.82
X237.66Y-76.72
X238.53Y-133.933
X245.21Y-98.31
X250.36Y-79.26
X250.374Y-117.417
X251.16Y-136.472
X251.56Y-95.77
X256.71Y-76.72
X256.724Y-114.877
X257.51Y-133.933
X264.343Y-98.31
X269.41Y-79.26
X269.446Y-117.417
X270.28Y-136.472
X270.693Y-95.77
X275.76Y-76.72
X275.796Y-114.877
X276.63Y-133.933
X283.377Y-98.31
X288.46Y-79.26
X288.518Y-117.417
X289.36Y-136.472
X289.727Y-95.77
X293.83Y-155.46
X294.81Y-76.72
X294.868Y-114.877
X295.71Y-133.933
X300.18Y-152.92
X302.41Y-98.31
X307.51Y-79.26
X307.59Y-117.417
X308.46Y-136.472
X308.76Y-95.77
X313.86Y-76.72
X313.94Y-114.877
X314.81Y-133.933
X321.443Y-98.31
X326.56Y-79.26
X326.662Y-117.417
X327.58Y-136.472
X327.793Y-95.77
X332.91Y-76.72
X333.012Y-114.877
X333.93Y-133.933
X340.577Y-98.31
X345.61Y-79.26
X345.734Y-117.417
X346.68Y-136.472
X346.927Y-95.77
X351.96Y-76.72
X352.084Y-114.877
X353.03Y-133.933
X359.71Y-98.31
X364.66Y-79.26
X364.806Y-117.417
X365.88Y-136.472
X366.06Y-95.77
X371.01Y-76.72
X371.156Y-114.877
X372.23Y-133.933
X378.843Y-98.31
X383.71Y-60.21
X383.71Y-79.26
X383.878Y-117.417
X384.78Y-136.472
X385.193Y-95.77
X390.06Y-57.67
X390.06Y-76.72
X390.228Y-114.877
X391.13Y-133.933
X397.977Y-98.31
X402.76Y-60.21
X402.76Y-79.26
X402.95Y-117.417
X404.327Y-95.77
X409.11Y-57.67
X409.11Y-76.72
X409.3Y-114.877
X413.36Y-136.552
X417.11Y-98.31
X419.71Y-134.012
X421.81Y-60.21
X421.81Y-79.26
X423.46Y-95.77
X426.69Y-117.36
X428.16Y-57.67
X428.16Y-76.72
X433.04Y-114.82
X440.86Y-60.21
X440.86Y-79.26
X441.86Y-136.41
X447.21Y-57.67
X447.21Y-76.72
X448.21Y-133.87
X450.36Y-98.31
X450.69Y-117.36
X456.71Y-95.77
X457.04Y-114.82
X490.683Y-79.26
X490.683Y-98.31
X490.683Y-117.36
X497.032Y-76.72
X497.032Y-95.77
X497.032Y-114.82
X500.242Y-136.41
X506.592Y-133.87
X509.732Y-79.26
X509.732Y-98.31
X509.732Y-117.36
X516.082Y-76.72
X516.082Y-95.77
X516.082Y-114.82
X528.783Y-79.26
X528.783Y-98.31
X528.783Y-117.36
X528.783Y-136.41
X535.132Y-76.72
X535.132Y-95.77
X535.132Y-114.82
X535.132Y-133.87
X547.832Y-79.26
X547.832Y-98.31
X547.832Y-126.94
X554.183Y-76.72
X554.183Y-95.77
X554.183Y-124.4
M30
