M48
; DRILL file KiCad 10.0.1 date 2026-05-23T17:22:15
; FORMAT={-:-/ absolute / metric / decimal}
; #@! TF.CreationDate,2026-05-23T17:22:15-05:00
; #@! TF.GenerationSoftware,Kicad,Pcbnew,10.0.1
; #@! TF.FileFunction,NonPlated,1,2,NPTH
FMAT,2
METRIC
; #@! TA.AperFunction,NonPlated,NPTH,ComponentDrill
T1C1.500
; #@! TA.AperFunction,NonPlated,NPTH,ComponentDrill
T2C1.700
; #@! TA.AperFunction,NonPlated,NPTH,ComponentDrill
T3C1.800
; #@! TA.AperFunction,NonPlated,NPTH,ComponentDrill
T4C3.050
; #@! TA.AperFunction,NonPlated,NPTH,ComponentDrill
T5C4.000
%
G90
G05
T1
X313.57Y-38.285
X313.57Y-43.135
T2
X158.06Y-119.9
X168.22Y-119.9
X172.89Y-81.8
X179.86Y-100.85
X182.84Y-138.95
X183.05Y-81.8
X184.46Y-119.9
X190.02Y-100.85
X191.94Y-81.8
X193.0Y-138.95
X194.62Y-119.9
X202.1Y-81.8
X205.973Y-100.85
X210.86Y-119.957
X210.99Y-81.8
X211.81Y-139.012
X216.133Y-100.85
X221.02Y-119.957
X221.15Y-81.8
X221.97Y-139.012
X225.007Y-100.85
X230.032Y-119.9
X230.04Y-81.8
X230.91Y-139.012
X235.167Y-100.85
X240.192Y-119.9
X240.2Y-81.8
X241.07Y-139.012
X243.94Y-100.85
X249.09Y-81.8
X249.104Y-119.957
X249.89Y-139.012
X254.1Y-100.85
X259.25Y-81.8
X259.264Y-119.957
X260.05Y-139.012
X263.073Y-100.85
X268.14Y-81.8
X268.176Y-119.957
X269.01Y-139.012
X273.233Y-100.85
X278.3Y-81.8
X278.336Y-119.957
X279.17Y-139.012
X282.107Y-100.85
X287.19Y-81.8
X287.248Y-119.957
X288.09Y-139.012
X292.267Y-100.85
X292.56Y-158.0
X297.35Y-81.8
X297.408Y-119.957
X298.25Y-139.012
X301.14Y-100.85
X302.72Y-158.0
X306.24Y-81.8
X306.32Y-119.957
X307.19Y-139.012
X311.3Y-100.85
X316.4Y-81.8
X316.48Y-119.957
X317.35Y-139.012
X320.173Y-100.85
X325.29Y-81.8
X325.392Y-119.957
X326.31Y-139.012
X330.333Y-100.85
X335.45Y-81.8
X335.552Y-119.957
X336.47Y-139.012
X339.307Y-100.85
X344.34Y-81.8
X344.464Y-119.957
X345.41Y-139.012
X349.467Y-100.85
X354.5Y-81.8
X354.624Y-119.957
X355.57Y-139.012
X358.44Y-100.85
X363.39Y-81.8
X363.536Y-119.957
X364.61Y-139.012
X368.6Y-100.85
X373.55Y-81.8
X373.696Y-119.957
X374.77Y-139.012
X377.573Y-100.85
X382.44Y-62.75
X382.44Y-81.8
X382.608Y-119.957
X383.51Y-139.012
X387.733Y-100.85
X392.6Y-62.75
X392.6Y-81.8
X392.768Y-119.957
X393.67Y-139.012
X396.707Y-100.85
X401.49Y-62.75
X401.49Y-81.8
X401.68Y-119.957
X406.867Y-100.85
X411.65Y-62.75
X411.65Y-81.8
X411.84Y-119.957
X412.09Y-139.093
X415.84Y-100.85
X420.54Y-62.75
X420.54Y-81.8
X422.25Y-139.093
X425.42Y-119.9
X426.0Y-100.85
X430.7Y-62.75
X430.7Y-81.8
X435.58Y-119.9
X439.59Y-62.75
X439.59Y-81.8
X440.59Y-138.95
X449.09Y-100.85
X449.42Y-119.9
X449.75Y-62.75
X449.75Y-81.8
X450.75Y-138.95
X459.25Y-100.85
X459.58Y-119.9
X489.412Y-81.8
X489.412Y-100.85
X489.412Y-119.9
X498.972Y-138.95
X499.572Y-81.8
X499.572Y-100.85
X499.572Y-119.9
X508.462Y-81.8
X508.462Y-100.85
X508.462Y-119.9
X509.132Y-138.95
X518.622Y-81.8
X518.622Y-100.85
X518.622Y-119.9
X527.512Y-81.8
X527.512Y-100.85
X527.512Y-119.9
X527.512Y-138.95
X537.673Y-81.8
X537.673Y-100.85
X537.673Y-119.9
X537.673Y-138.95
X546.562Y-81.8
X546.562Y-100.85
X546.562Y-129.48
X556.722Y-81.8
X556.722Y-100.85
X556.722Y-129.48
T3
X310.54Y-37.985
X310.54Y-43.435
T4
X176.02Y-131.95
X199.82Y-131.95
X247.64Y-151.0
X347.64Y-151.0
X405.27Y-132.093
X429.07Y-132.093
X492.152Y-131.95
X515.952Y-131.95
X544.642Y-117.58
X544.642Y-141.38
T5
X163.14Y-119.9
X176.02Y-147.19
X177.97Y-81.8
X184.94Y-100.85
X187.92Y-138.95
X189.54Y-119.9
X197.02Y-81.8
X199.82Y-147.19
X211.053Y-100.85
X215.94Y-119.957
X216.07Y-81.8
X216.89Y-139.012
X230.087Y-100.85
X235.112Y-119.9
X235.12Y-81.8
X235.99Y-139.012
X247.64Y-166.24
X249.02Y-100.85
X254.17Y-81.8
X254.184Y-119.957
X254.97Y-139.012
X268.153Y-100.85
X273.22Y-81.8
X273.256Y-119.957
X274.09Y-139.012
X287.187Y-100.85
X292.27Y-81.8
X292.328Y-119.957
X293.17Y-139.012
X297.64Y-158.0
X306.22Y-100.85
X311.32Y-81.8
X311.4Y-119.957
X312.27Y-139.012
X325.253Y-100.85
X330.37Y-81.8
X330.472Y-119.957
X331.39Y-139.012
X344.387Y-100.85
X347.64Y-166.24
X349.42Y-81.8
X349.544Y-119.957
X350.49Y-139.012
X363.52Y-100.85
X368.47Y-81.8
X368.616Y-119.957
X369.69Y-139.012
X382.653Y-100.85
X387.52Y-62.75
X387.52Y-81.8
X387.688Y-119.957
X388.59Y-139.012
X401.787Y-100.85
X405.27Y-147.332
X406.57Y-62.75
X406.57Y-81.8
X406.76Y-119.957
X417.17Y-139.093
X420.92Y-100.85
X425.62Y-62.75
X425.62Y-81.8
X429.07Y-147.332
X430.5Y-119.9
X444.67Y-62.75
X444.67Y-81.8
X445.67Y-138.95
X454.17Y-100.85
X454.5Y-119.9
X492.152Y-147.19
X494.492Y-81.8
X494.492Y-100.85
X494.492Y-119.9
X504.052Y-138.95
X513.543Y-81.8
X513.543Y-100.85
X513.543Y-119.9
X515.952Y-147.19
X532.592Y-81.8
X532.592Y-100.85
X532.592Y-119.9
X532.592Y-138.95
X551.642Y-81.8
X551.642Y-100.85
X551.642Y-129.48
X559.882Y-117.58
X559.882Y-141.38
M30
